<?xml version="1.0" standalone="no"?>
<!DOCTYPE svg PUBLIC "-//W3C//DTD SVG 20010904//EN"
 "http://www.w3.org/TR/2001/REC-SVG-20010904/DTD/svg10.dtd">
<svg version="1.0" xmlns="http://www.w3.org/2000/svg"
 width="705.000000pt" height="1280.000000pt" viewBox="0 0 705.000000 1280.000000"
 preserveAspectRatio="xMidYMid meet">
<metadata>
Created by potrace 1.15, written by Peter Selinger 2001-2017
</metadata>
<g transform="translate(0.000000,1280.000000) scale(0.100000,-0.100000)"
fill="#c9d1d9" stroke="none">
<path d="M4945 12773 c-34 -36 -178 -320 -169 -334 3 -6 12 -8 18 -6 10 4 12
-12 8 -69 -6 -89 13 -147 65 -205 l35 -38 -197 -703 c-108 -387 -198 -710
-201 -718 -3 -10 -39 -22 -116 -37 -294 -57 -579 -170 -800 -316 l-98 -64 -79
111 c-235 330 -507 545 -798 632 -67 20 -118 27 -214 31 -149 6 -249 -10 -378
-62 -68 -28 -82 -31 -78 -17 3 9 19 54 36 99 51 138 64 227 58 387 -4 113 -10
158 -31 229 -47 156 -141 321 -265 462 -60 67 -219 216 -252 235 -13 7 -28 -4
-70 -53 -160 -184 -251 -317 -340 -502 -175 -362 -195 -683 -64 -999 7 -16 3
-15 -32 7 -231 146 -543 223 -795 197 -97 -10 -175 -24 -183 -32 -2 -2 4 -49
14 -103 l17 -100 60 5 c32 3 140 5 239 4 144 0 201 -5 287 -22 254 -52 498
-173 637 -315 62 -64 70 -57 -79 -77 -168 -23 -344 -78 -477 -150 -455 -245
-602 -751 -398 -1371 82 -249 230 -525 396 -735 43 -54 47 -64 43 -100 -3 -21
-1 -96 3 -166 5 -71 6 -128 3 -128 -4 0 -22 16 -41 36 -18 20 -46 45 -62 56
l-27 19 2 -3773 3 -3773 32 -67 c44 -94 109 -160 202 -206 l75 -37 2680 0
2681 0 58 23 c108 44 194 131 241 246 l21 51 2 3789 3 3789 79 241 c44 133
130 395 191 582 71 218 118 348 130 359 30 27 35 78 15 133 -27 71 -139 180
-280 274 -133 88 -412 231 -580 297 -60 24 -114 50 -120 58 -118 174 -282 364
-398 463 -41 36 -76 70 -76 76 -1 6 53 204 120 440 66 236 147 526 180 644
104 373 95 348 135 359 57 16 123 60 154 103 17 23 30 45 30 49 0 4 4 19 10
34 8 21 13 24 29 16 16 -9 19 -6 25 32 11 70 18 351 9 363 -7 11 -283 91
-1040 303 -138 39 -254 71 -257 71 -3 0 -17 -12 -31 -27z"/>
</g>
</svg>
